HIERARCHY
ROOT SpineBase
{
  OFFSET 0.000000 0.000000 0.000000
  CHANNELS 6 Xposition Yposition Zposition Zrotation Xrotation Yrotation
  JOINT SpineMid
  {
    OFFSET 0.000000 29.642534 0.000000
    CHANNELS 3 Zrotation Xrotation Yrotation
    JOINT SpineShoulder
    {
      OFFSET 0.016368 22.004481 -0.746190
      CHANNELS 3 Zrotation Xrotation Yrotation
      JOINT Neck
      {
        OFFSET 0.012693 7.287518 -0.563713
        CHANNELS 3 Zrotation Xrotation Yrotation
        JOINT Head
        {
          OFFSET -3.905668 13.436816 -1.181328
          CHANNELS 3 Zrotation Xrotation Yrotation
          End Site
          {
            OFFSET 0 0 0
          }
        }
      }
      JOINT ShoulderLeft
      {
        OFFSET -16.944032 -4.820877 3.519282
        CHANNELS 3 Zrotation Xrotation Yrotation
        JOINT ElbowLeft
        {
          OFFSET -1.715262 -26.825189 1.387916
          CHANNELS 3 Zrotation Xrotation Yrotation
          JOINT WristLeft
          {
            OFFSET 1.591864 -21.742742 -6.818209
            CHANNELS 3 Zrotation Xrotation Yrotation
            JOINT HandLeft
            {
              OFFSET 1.551762 -5.153197 -0.981990
              CHANNELS 3 Zrotation Xrotation Yrotation
              JOINT HandTipLeft
              {
                OFFSET 2.510442 -5.067117 0.425809
                CHANNELS 3 Zrotation Xrotation Yrotation
                End Site
                {
                  OFFSET 0 0 0
                }
              }
              JOINT ThumbLeft
              {
                OFFSET 3.667080 1.808321 -3.238957
                CHANNELS 3 Zrotation Xrotation Yrotation
                End Site
                {
                  OFFSET 0 0 0
                }
              }
            }
          }
        }
      }
      JOINT ShoulderRight
      {
        OFFSET 14.756093 -2.050810 -6.186282
        CHANNELS 3 Zrotation Xrotation Yrotation
        JOINT ElbowRight
        {
          OFFSET 7.087704 -24.110108 0.454462
          CHANNELS 3 Zrotation Xrotation Yrotation
          JOINT WristRight
          {
            OFFSET -1.159623 -21.954227 -6.566399
            CHANNELS 3 Zrotation Xrotation Yrotation
            JOINT HandRight
            {
              OFFSET -2.194623 -5.969282 -1.270789
              CHANNELS 3 Zrotation Xrotation Yrotation
              JOINT HandTipRight
              {
                OFFSET -0.885929 -4.623314 -1.196210
                CHANNELS 3 Zrotation Xrotation Yrotation
                End Site
                {
                  OFFSET 0 0 0
                }
              }
              JOINT ThumbRight
              {
                OFFSET 3.618562 0.306370 -1.056178
                CHANNELS 3 Zrotation Xrotation Yrotation
                End Site
                {
                  OFFSET 0 0 0
                }
              }
            }
          }
        }
      }
    }
  }
  JOINT HipLeft
  {
    OFFSET -6.564417 -0.191807 -1.550506
    CHANNELS 3 Zrotation Xrotation Yrotation
    JOINT KneeLeft
    {
      OFFSET 3.568175 -27.045565 5.149143
      CHANNELS 3 Zrotation Xrotation Yrotation
      JOINT AnkleLeft
      {
        OFFSET 3.839582 -33.026139 5.816553
        CHANNELS 3 Zrotation Xrotation Yrotation
        JOINT FootLeft
        {
          OFFSET 3.799322 -7.632773 -5.705025
          CHANNELS 3 Zrotation Xrotation Yrotation
          End Site
          {
            OFFSET 0 0 0
          }
        }
      }
    }
  }
  JOINT HipRight
  {
    OFFSET 7.147380 1.931277 -5.234812
    CHANNELS 3 Zrotation Xrotation Yrotation
    JOINT KneeRight
    {
      OFFSET 7.577669 -24.813178 -0.954555
      CHANNELS 3 Zrotation Xrotation Yrotation
      JOINT AnkleRight
      {
        OFFSET -0.460038 -37.416893 10.798420
        CHANNELS 3 Zrotation Xrotation Yrotation
        JOINT FootRight
        {
          OFFSET -0.676041 -8.010209 -5.628655
          CHANNELS 3 Zrotation Xrotation Yrotation
          End Site
          {
            OFFSET 0 0 0
          }
        }
      }
    }
  }
}
MOTION
Frames: 10
Frame Time: 0.033333
-30.347864 70.571977 344.305373 -0.099294 2.295398 6.847915 0.101713 -0.208798 -6.844047 0.081671 -0.106494 0.007172 -17.478387 27.292871 11.870110 0.000000 0.000000 0.000000 -4.892551 7.921638 -0.643389 2.864060 -6.726422 1.866209 -20.174463 21.637629 14.964348 -8.045127 -11.040897 -12.315496 0.000000 0.000000 0.000000 0.000000 0.000000 0.000000 66.062018 16.459732 -2.221075 107.697807 50.428091 177.485901 -74.031763 38.412856 -130.891388 -28.987284 26.602350 92.129659 0.000000 0.000000 0.000000 0.000000 0.000000 0.000000 -3.186356 -5.422804 -8.003653 3.666393 1.051774 0.731443 2.015637 8.944113 0.680081 0.000000 0.000000 0.000000 -10.328693 -9.582046 -10.225119 13.795854 11.379419 2.175819 -6.785769 13.429778 -1.172398 0.000000 0.000000 0.000000
-30.232557 70.215207 344.353235 0.121608 2.415749 6.817442 0.019370 -0.050090 -6.816200 0.027734 0.016810 0.006689 -17.176138 27.131519 11.786091 0.000000 0.000000 0.000000 -4.971615 10.170694 -0.742773 2.990644 -6.709057 2.273655 -18.232701 24.212585 15.598454 -8.901307 -15.039665 -13.735843 0.000000 0.000000 0.000000 0.000000 0.000000 0.000000 49.419531 16.796229 -0.043914 79.762507 62.296226 -125.641786 -27.460106 6.376383 -68.391267 -1.069854 41.173492 62.544523 0.000000 0.000000 0.000000 0.000000 0.000000 0.000000 -3.325822 -5.307966 -7.934817 3.384149 0.679018 0.654425 3.410210 3.739561 -2.636317 0.000000 0.000000 0.000000 -10.484634 -9.989951 -10.339513 13.512462 11.883573 2.211842 -7.180799 14.613043 -0.826848 0.000000 0.000000 0.000000
-30.070889 69.941385 344.408981 0.320793 2.538322 6.900332 -0.038825 0.044431 -6.901035 -0.013162 0.119391 0.007673 -16.667580 26.508453 11.417053 0.000000 0.000000 0.000000 -4.590341 12.220514 -0.847711 2.578082 -6.328028 2.589179 -13.075963 23.897510 13.726284 -12.110832 -16.800905 -14.348842 0.000000 0.000000 0.000000 0.000000 0.000000 0.000000 32.639105 15.757481 2.024720 44.547642 58.665971 -68.206340 -9.239110 -2.546777 -35.825584 16.970239 24.034358 28.238241 0.000000 0.000000 0.000000 0.000000 0.000000 0.000000 -3.499904 -5.143132 -7.985908 3.307641 0.347104 0.610588 1.545029 7.387069 0.547591 0.000000 0.000000 0.000000 -10.756127 -10.379854 -10.581004 13.204119 12.397029 2.226363 -6.955751 13.455061 -0.692434 0.000000 0.000000 0.000000
-29.854814 69.744297 344.417350 0.504363 2.690898 7.266900 -0.045367 0.130899 -7.267766 -0.019938 0.172276 0.013484 -16.436498 25.895723 11.085003 0.000000 0.000000 0.000000 -3.693044 14.936369 -1.026583 1.706839 -6.296957 2.826394 -6.889048 24.266571 12.143915 -17.728715 -15.501852 -13.891719 0.000000 0.000000 0.000000 0.000000 0.000000 0.000000 19.507414 13.325462 3.182993 28.032435 44.307130 -36.535938 -0.688023 -2.823913 -19.955874 17.178127 4.065757 19.100790 0.000000 0.000000 0.000000 0.000000 0.000000 0.000000 -3.806561 -4.950586 -8.350583 3.436396 0.005519 0.597804 -6.015691 12.439776 9.187947 0.000000 0.000000 0.000000 -11.331904 -10.807197 -11.172464 13.250300 12.956787 2.243564 -6.342894 10.442664 -0.844582 0.000000 0.000000 0.000000
-29.613376 69.554047 344.358789 0.672938 2.840153 8.460471 -0.114265 0.186336 -8.465619 -0.036100 0.180455 0.015321 -15.382692 24.127331 10.090334 0.000000 0.000000 0.000000 -2.598889 16.876188 -1.208215 0.736177 -5.450809 2.936727 -1.622269 23.938175 10.934673 -21.626957 -12.687852 -11.953722 0.000000 0.000000 0.000000 0.000000 0.000000 0.000000 11.797314 11.635322 3.548569 18.289332 27.755694 -20.216596 3.980176 3.795876 -15.252524 12.470468 -10.249014 17.601914 0.000000 0.000000 0.000000 0.000000 0.000000 0.000000 -4.244425 -4.585356 -9.550766 3.665018 -0.491771 0.586818 -9.427365 15.548333 13.622002 0.000000 0.000000 0.000000 -11.904588 -11.096677 -12.587548 12.910823 13.268750 2.278793 -5.353102 4.872914 -0.848175 0.000000 0.000000 0.000000
-29.479130 69.379019 344.229473 0.627581 2.966734 10.267563 -0.170765 0.159678 -10.277051 -0.100547 0.150844 0.004447 -13.262513 21.745361 8.781537 0.000000 0.000000 0.000000 -1.382748 17.874627 -1.326063 -0.387510 -4.151211 2.951330 0.581562 20.764328 9.875283 -23.630666 -8.953569 -9.908719 0.000000 0.000000 0.000000 0.000000 0.000000 0.000000 7.145467 9.589457 3.424753 11.253213 9.827834 -10.753540 4.606953 9.538871 -12.040466 8.736163 -16.423427 13.981424 0.000000 0.000000 0.000000 0.000000 0.000000 0.000000 -4.409329 -4.210064 -11.332996 3.781762 -0.946048 0.562886 -10.852721 15.642613 14.953394 0.000000 0.000000 0.000000 -11.955916 -11.104783 -14.478100 12.096387 13.035070 2.333474 -4.286670 -3.112602 -0.554904 0.000000 0.000000 0.000000
-29.523492 69.212276 344.011730 0.304331 3.106113 12.460962 -0.162477 0.112058 -12.472467 -0.208961 0.132172 -0.020051 -10.088586 18.417245 7.168144 0.000000 0.000000 0.000000 0.044013 18.178451 -1.385143 -1.287192 -3.761748 2.786595 0.879960 11.189184 7.114661 -21.345653 -1.925908 -3.715616 0.000000 0.000000 0.000000 0.000000 0.000000 0.000000 4.261564 7.052738 2.985007 6.033563 -2.938488 -5.761907 8.140434 14.035409 -10.578457 2.815703 -24.396630 12.923686 0.000000 0.000000 0.000000 0.000000 0.000000 0.000000 -4.103329 -3.957291 -13.442085 3.465490 -1.495025 0.453890 -5.744732 10.717512 8.220075 0.000000 0.000000 0.000000 -11.534839 -11.468230 -16.851624 10.761251 13.086534 2.483482 -2.983465 -1.910791 -0.882935 0.000000 0.000000 0.000000
-29.707837 69.039072 343.798528 -0.222191 3.153668 14.493456 -0.137612 0.011188 -14.505604 -0.323402 0.048236 -0.052463 -6.361815 14.700174 5.584683 0.000000 0.000000 0.000000 0.932976 16.350461 -1.209572 -1.618813 -2.559979 2.571209 -1.580652 2.652767 4.587054 -10.901120 5.139737 3.593294 0.000000 0.000000 0.000000 0.000000 0.000000 0.000000 3.063856 3.392252 2.040433 1.862012 -10.438289 -2.632517 8.514291 19.467454 -10.051164 1.443306 -32.122841 13.212889 0.000000 0.000000 0.000000 0.000000 0.000000 0.000000 -3.540930 -3.745882 -15.375803 3.413450 -1.909058 0.403316 -7.232281 16.013061 11.866959 0.000000 0.000000 0.000000 -10.829528 -11.563847 -18.911861 10.239230 12.875513 2.628184 0.855818 -6.702059 -3.145105 0.000000 0.000000 0.000000
-29.975527 68.853975 343.602371 -0.847711 3.085336 16.189667 -0.160198 -0.150250 -16.206173 -0.437126 -0.062384 -0.090289 -2.434185 10.894244 4.175438 0.000000 0.000000 0.000000 1.233390 12.856423 -0.860418 -1.244968 -0.615070 2.334566 -5.443709 -2.445449 2.705660 -4.655599 10.926310 6.693918 0.000000 0.000000 0.000000 0.000000 0.000000 0.000000 2.489381 -0.394834 0.912706 0.878720 -10.923806 -0.705253 5.471977 11.414970 -3.716894 -1.745951 -24.742421 7.186250 0.000000 0.000000 0.000000 0.000000 0.000000 0.000000 -2.797816 -3.614906 -16.966491 3.452866 -2.134880 0.389449 -8.545799 18.630565 13.991842 0.000000 0.000000 0.000000 -9.910968 -11.461918 -20.518960 8.976410 12.170941 2.661162 -0.074453 -2.468487 -2.259883 0.000000 0.000000 0.000000
-30.258753 68.670212 343.444267 -1.456230 2.928352 17.425423 -0.208963 -0.314816 -17.450951 -0.516318 -0.156785 -0.124693 1.164776 7.470654 3.077383 0.000000 0.000000 0.000000 1.085169 8.476470 -0.488743 -0.786483 0.570959 2.033780 -7.975311 -0.556923 2.924269 -1.148852 8.018754 4.344081 0.000000 0.000000 0.000000 0.000000 0.000000 0.000000 3.173224 -4.196238 -0.235208 -0.603206 -8.532708 0.993375 5.551128 7.457996 -1.547818 -4.218087 -18.952881 4.645133 0.000000 0.000000 0.000000 0.000000 0.000000 0.000000 -2.074027 -3.550446 -18.120875 3.560898 -2.171588 0.407527 -10.483350 21.495409 16.779379 0.000000 0.000000 0.000000 -8.873043 -11.053408 -21.514855 8.093334 11.078188 2.614662 -1.485107 -2.612135 -0.845976 0.000000 0.000000 0.000000
